<?xml version="1.0" encoding="UTF-8" standalone="no"?>
<!-- Created with Inkscape (http://www.inkscape.org/) -->

<svg
   width="160mm"
   height="120mm"
   viewBox="0 0 159.99999 120"
   version="1.1"
   id="svg5"
   xml:space="preserve"
   inkscape:version="1.2.2 (b0a8486541, 2022-12-01)"
   sodipodi:docname="gigot.svg"
   inkscape:export-filename="gigot.png"
   inkscape:export-xdpi="96"
   inkscape:export-ydpi="96"
   xmlns:inkscape="http://www.inkscape.org/namespaces/inkscape"
   xmlns:sodipodi="http://sodipodi.sourceforge.net/DTD/sodipodi-0.dtd"
   xmlns:xlink="http://www.w3.org/1999/xlink"
   xmlns="http://www.w3.org/2000/svg"
   xmlns:svg="http://www.w3.org/2000/svg"><sodipodi:namedview
     id="namedview7"
     pagecolor="#ffffff"
     bordercolor="#000000"
     borderopacity="0.25"
     inkscape:showpageshadow="2"
     inkscape:pageopacity="0.0"
     inkscape:pagecheckerboard="0"
     inkscape:deskcolor="#d1d1d1"
     inkscape:document-units="mm"
     showgrid="false"
     inkscape:zoom="1.2479514"
     inkscape:cx="301.69444"
     inkscape:cy="226.77165"
     inkscape:window-width="1920"
     inkscape:window-height="1011"
     inkscape:window-x="0"
     inkscape:window-y="32"
     inkscape:window-maximized="1"
     inkscape:current-layer="layer1" /><defs
     id="defs2"><linearGradient
       inkscape:collect="always"
       id="linearGradient7669"><stop
         style="stop-color:#b54902;stop-opacity:1;"
         offset="0"
         id="stop7665" /><stop
         style="stop-color:#dd6800;stop-opacity:1;"
         offset="1"
         id="stop7667" /></linearGradient><linearGradient
       inkscape:collect="always"
       id="linearGradient7653"><stop
         style="stop-color:#d78e11;stop-opacity:1;"
         offset="0"
         id="stop7649" /><stop
         style="stop-color:#ebb24d;stop-opacity:1;"
         offset="1"
         id="stop7651" /></linearGradient><linearGradient
       inkscape:collect="always"
       id="linearGradient3933"><stop
         style="stop-color:#dd6800;stop-opacity:1;"
         offset="0"
         id="stop3929" /><stop
         style="stop-color:#b54902;stop-opacity:1;"
         offset="1"
         id="stop3931" /></linearGradient><linearGradient
       inkscape:collect="always"
       xlink:href="#linearGradient3933"
       id="linearGradient3935"
       x1="124.85952"
       y1="39.193253"
       x2="131.43828"
       y2="55.856094"
       gradientUnits="userSpaceOnUse"
       gradientTransform="translate(10.504507,20.989314)" /><linearGradient
       inkscape:collect="always"
       xlink:href="#linearGradient7653"
       id="linearGradient7655"
       x1="68.6474"
       y1="59.003403"
       x2="65.996269"
       y2="42.500332"
       gradientUnits="userSpaceOnUse"
       gradientTransform="translate(10.504507,20.989314)" /><linearGradient
       inkscape:collect="always"
       xlink:href="#linearGradient7669"
       id="linearGradient7671"
       x1="158.65501"
       y1="37.929977"
       x2="151.35814"
       y2="21.628302"
       gradientUnits="userSpaceOnUse"
       gradientTransform="translate(10.504507,20.989314)" /></defs><g
     inkscape:label="Layer 1"
     inkscape:groupmode="layer"
     id="layer1"
     transform="translate(-36.682362,-11.68622)"><ellipse
       style="opacity:1;fill:#f6f5f5;fill-opacity:1;stroke:#000000;stroke-width:1.97218;stroke-linecap:round;stroke-linejoin:round;stroke-dasharray:none;stroke-opacity:1"
       id="path7749"
       cx="111.32635"
       cy="88.608315"
       rx="66.71463"
       ry="30.177446"
       transform="matrix(0.99792949,-0.06431738,0.06683149,0.99776428,0,0)" /><path
       style="fill:#e9c6af;stroke:none;stroke-width:2;stroke-linecap:round;stroke-linejoin:round"
       d="m 77.668482,100.72938 c 5.948628,5.23541 17.978533,1.89872 28.280748,-1.986748 10.30221,-3.885468 30.25396,8.120258 47.66456,-3.857598 17.4106,-11.977859 27.73476,-20.342439 23.56559,-26.594962 C 167.13281,53.454026 96.611104,57.503499 78.638695,67.942494 56.096083,81.810971 65.847904,90.99976 77.668482,100.72938 Z"
       id="path308"
       sodipodi:nodetypes="czzccc" /><path
       style="fill:url(#linearGradient3935);fill-opacity:1;stroke-width:0.324427;stroke-linecap:round;stroke-linejoin:round;stroke-opacity:0.959877"
       d="m 91.968761,85.974498 c -2.646614,-0.536924 -4.021416,-5.501966 -3.121021,-7.949782 5.420572,-5.970555 5.381768,-6.91317 3.575165,-10.591837 -1.789806,-3.410215 -7.327472,-5.041358 -11.272039,-4.709896 -2.206715,-1.102024 6.760232,-5.713722 8.406287,-6.185939 10.688397,-4.025651 12.195687,-5.637365 18.188537,-8.32942 8.51142,-6.006165 16.682,-9.497078 26.72834,-12.492159 5.27693,-1.735849 11.21577,-2.074257 16.8375,-0.702851 5.1603,0.445724 8.57103,6.775997 8.98714,11.377553 0.44335,3.952826 3.954,6.596728 4.63227,10.640678 1.43231,4.076244 1.84055,10.720148 -1.28137,14.139784 -2.09287,0.686514 -3.64365,4.830449 -5.28208,4.722219 -3.21828,-0.21259 -5.87268,5.469707 -15.22122,7.507353 -2.26066,-3.388106 -6.90703,-2.122201 -9.92672,-0.108174 -2.52218,1.124104 -6.95267,2.304841 -8.54406,-1.327196 -3.17074,-2.002412 -7.60666,2.358299 -10.43167,3.501442 -11.12661,1.49802 -11.54899,1.534829 -13.36187,1.737494 -1.519042,0.169818 -4.756595,0.853446 -8.913189,-1.229269 z"
       id="path1604"
       sodipodi:nodetypes="cccccccccccsccccsc" /><path
       style="fill:#fce5d7;fill-opacity:1;stroke-width:0.648856;stroke-linecap:round;stroke-linejoin:round;stroke-opacity:0.959877"
       d="m 108.04473,92.256821 c -0.63678,-2.683351 1.09763,-5.940626 3.44732,-5.497378 2.59752,-0.953801 5.80058,-0.742174 8.19858,-2.266555 1.03864,-0.660252 2.91003,-2.114243 3.17414,-2.228041 0.45802,-0.197358 2.5885,2.191287 5.85731,1.960192 4.79586,-0.33905 6.02354,-3.079784 9.73658,-3.346799 2.72949,-0.196284 3.24731,5.653979 2.94345,6.88267 -0.56617,2.289296 -3.12618,6.141315 -4.79458,6.992469 -0.69023,0.352131 -6.76725,1.023792 -10.89962,-1.243367 -1.9945,-1.094251 -1.00415,3.941818 -5.89559,3.420652 l -3.5669,0.53847 c -5.7526,-1.60337 -6.44434,-1.322721 -8.20069,-5.212313 z"
       id="path5216"
       sodipodi:nodetypes="ccsssssssscc" /><path
       style="fill:#f7dda2;stroke-width:0.163246"
       d="m 114.32943,89.974378 c -0.71511,-0.16871 -1.42936,-0.71346 -1.32925,-1.01379 0.0336,-0.10072 1.15918,-0.73697 2.50136,-1.41388 1.34217,-0.67691 3.01102,-1.58903 3.70856,-2.02692 1.45823,-0.91543 2.45185,-1.13451 3.13003,-0.69015 1.10258,0.72243 0.0531,2.52991 -2.28225,3.93072 -1.7291,1.03716 -4.23082,1.56734 -5.72845,1.21402 z m 15.97655,-1.92914 c -0.72991,-0.45994 -0.87198,-1.1069 -0.34299,-1.56192 0.60831,-0.52325 4.50823,-2.63177 5.43739,-2.93976 0.99484,-0.32977 1.78823,-0.21299 2.13356,0.31405 0.37181,0.56745 0.15495,1.12681 -0.86319,2.22652 -1.26285,1.36403 -2.85763,2.14017 -4.57842,2.2282 -1.05684,0.0541 -1.34508,0.011 -1.78635,-0.26709 z m -11.3501,-36.105742 c -0.4506,-0.26245 -0.34078,-0.69784 0.43526,-1.72565 0.75521,-1.00023 2.02901,-2.04889 2.96257,-2.43895 1.17318,-0.49019 2.53334,-0.20014 3.4041,0.72591 1.20998,1.2868 0.0977,2.47373 -3.07966,3.28637 -1.3689,0.3501 -3.2505,0.4271 -3.72227,0.15232 z m 9.69388,-5.09338 c -0.3024,-0.0966 -0.79826,-0.41003 -1.10191,-0.6964 -1.42458,-1.34355 0.0241,-3.02037 3.6995,-4.28218 2.13904,-0.73435 3.58081,-1.00973 5.29834,-1.01198 1.658,-0.002 2.40287,0.15995 3.2025,0.69701 0.4411,0.29625 0.56257,0.49646 0.60388,0.99531 0.0458,0.55352 -0.0286,0.70145 -0.65555,1.30213 -2.13429,2.04502 -8.56521,3.78922 -11.04676,2.99611 z"
       id="path372"
       sodipodi:nodetypes="scssssscssssccssssssccscsccc" /><path
       style="fill:url(#linearGradient7655);fill-opacity:1;stroke-width:0.163246"
       d="m 58.327802,85.989489 c -5.077669,-3.706182 -9.704878,-11.278298 -8.687266,-16.671316 0.270719,-1.52453 3.47889,-4.94963 4.257399,-5.21603 0.950376,-0.32521 30.354313,-0.577316 31.312321,-0.124096 2.776883,1.31367 5.513574,-1.84557 7.641904,5.58954 0.30365,1.06077 1.283501,4.278125 1.415228,4.542185 0.232151,0.46535 -30.739104,11.846228 -31.252538,12.237838 -1.04722,0.79876 -3.569159,0.002 -4.687048,-0.358121 z"
       id="path364"
       sodipodi:nodetypes="ccscsssc" /><path
       id="path3349"
       style="fill:url(#linearGradient7671);fill-opacity:1;stroke-width:0.162214;stroke-linecap:round;stroke-linejoin:round;stroke-opacity:0.959877"
       d="m 165.68472,45.394425 c -1.29931,-3.687303 -4.0353,-6.087064 -6.0237,-6.689294 -1.55163,-0.485689 -0.27022,3.788572 1.54606,9.045213 0.92953,2.690233 4.12765,8.067811 5.01055,11.544043 0.84226,3.316227 0.70407,6.485178 -0.54548,10.296523 -1.24955,3.811344 2.70335,5.853973 4.84229,3.850019 2.13894,-2.003953 -1.37304,1.46581 2e-5,0 1.37306,-1.46581 5.86726,-10.672187 2.15199,-15.581587 -3.71527,-4.909401 -5.68243,-8.777614 -6.98173,-12.464917 z"
       sodipodi:nodetypes="zssszzzzz" /><path
       style="fill:#7b940a;fill-opacity:1;stroke-width:0.162214;stroke-linecap:round;stroke-linejoin:round;stroke-opacity:0.959877"
       d="m 84.04611,97.404036 c -0.821487,-0.721068 -0.561948,-3.865946 0.101127,-4.587412 -0.583036,-0.983152 -2.089335,-1.386252 -7.232293,-2.123006 -1.528334,-0.155303 -4.051893,-0.01708 -5.481069,-0.594359 -1.349642,-1.189702 2.429539,-2.476731 3.304331,-2.567272 5.644873,-0.07096 4.390305,-2.694186 3.38889,-3.939754 -0.844476,-1.666441 2.230463,-4.870021 5.971038,-1.955922 3.740576,2.914099 11.462453,4.89706 16.911156,5.760121 5.44871,0.863061 5.90109,-0.445801 6.69683,0.79691 0.79575,1.242711 -0.54732,1.587806 -0.72269,2.094925 -0.96073,1.835983 -2.34534,0.699723 -4.31075,1.624796 -1.00739,2.986186 -6.556307,6.164389 -6.001057,4.548577 -3.154368,-2.078783 -11.804026,1.663463 -12.625513,0.942396 z"
       id="path5110"
       sodipodi:nodetypes="zccccczzzcccz" /><path
       style="fill:#7b940a;fill-opacity:1;stroke-width:0.162214;stroke-linecap:round;stroke-linejoin:round;stroke-opacity:0.959877"
       d="m 153.71417,90.56263 c -3.93661,-0.227666 -8.16897,-0.292746 -10.29839,-1.419199 -2.12942,-1.126453 -4.56142,-2.939526 -0.19125,-5.369673 4.37016,-2.430148 6.46256,-4.939058 11.14811,-6.442646 2.81293,-0.767437 0.48169,0.511817 7.31512,-2.522093 6.83342,-3.03391 -1.1438,4.619178 6.47033,3.85838 7.61413,-0.760799 2.1927,2.673154 0.64296,3.901386 -1.54974,1.228231 -10.4451,1.080731 -7.27499,5.158524 0.50318,1.427916 -1.25916,2.778528 -2.74484,2.742667 -1.3182,0.179694 -3.73815,0.161581 -5.06705,0.09265 z"
       id="path5112"
       sodipodi:nodetypes="czzczzzccc" /><path
       style="opacity:1;fill:#341200;stroke-width:0.163246"
       d="m 104.0686,112.97052 c -20.954116,-0.71809 -38.830474,-5.81017 -48.239334,-13.740967 -3.788073,-3.19299 -5.654889,-5.67912 -6.660648,-8.870321 -1.079531,-3.42528 -0.965921,-6.90553 0.319524,-9.78806 0.76385,-1.71288 0.835866,-2.12451 0.411434,-2.35166 -0.569399,-0.30473 -1.962604,-2.57617 -2.344913,-3.82308 -0.418262,-1.36416 -0.495808,-4.12001 -0.149728,-5.32107 0.896969,-3.1129 3.188659,-5.53922 6.106495,-6.46523 1.743262,-0.55325 3.589386,-0.53518 7.813604,0.0765 5.62748,0.81482 6.466097,0.87667 10.502387,0.77459 3.129618,-0.0791 6.826355,-0.41069 7.010195,-0.62871 0.02559,-0.0303 0.354204,-0.54665 0.730257,-1.14736 1.731926,-2.76657 5.578924,-5.14815 9.971792,-6.17327 0.493821,-0.11524 1.191699,-0.4095 1.550842,-0.65392 0.915615,-0.62314 2.41106,-1.35438 3.761169,-1.83913 1.256353,-0.45108 4.685822,-1.26062 5.340404,-1.26062 0.26926,0 1.30015,-0.6645 3.0004,-1.93401 6.35907,-4.74807 11.64329,-8.02643 18.58837,-11.53233 7.32803,-3.69922 12.52774,-5.39428 17.14609,-5.5895 2.38009,-0.1006 3.70093,0.0694 5.57974,0.71823 0.84864,0.29306 1.36418,0.38454 1.7299,0.30695 1.2359,-0.26218 3.50147,-0.38335 4.75313,-0.25422 2.53758,0.26181 4.52477,1.14036 6.39424,2.82694 0.79807,0.72 0.88973,0.75747 2.27392,0.92948 2.51996,0.31314 4.72818,1.41254 6.03126,3.00279 1.47261,1.79711 2.35697,5.02494 2.37511,8.66885 0.005,1.09623 0.0353,1.18197 0.73389,2.10709 0.4323,0.5725 1.04712,1.1465 1.51302,1.41259 1.31404,0.75048 3.24503,2.68465 4.05118,4.05783 0.77344,1.31748 1.43381,3.1632 1.61101,4.50273 0.21975,1.66123 0.20515,1.63638 1.44278,2.45638 3.3714,2.23374 5.49061,5.02419 6.57111,8.65244 0.59333,1.99241 0.74121,5.74656 0.32451,8.23858 -0.89054,5.32583 -3.25326,9.02983 -9.06766,14.215261 -5.50982,4.91378 -14.79077,9.649587 -24.942,12.727187 -13.91343,4.2182 -30.34439,6.2436 -46.23348,5.69908 z m 13.95758,-4.74516 c 13.34119,-0.69606 27.45931,-3.39021 37.54669,-7.165 8.40149,-3.143917 14.91444,-6.993937 19.56291,-11.564288 4.50922,-4.43345 6.54562,-8.68725 6.53892,-13.65905 -0.003,-2.38938 -0.2678,-3.51425 -1.3229,-5.62434 -0.5986,-1.19713 -1.03743,-1.80897 -1.95697,-2.72851 -1.3392,-1.3392 -2.04661,-1.79476 -2.29581,-1.47845 -0.0866,0.10987 -0.2056,0.51563 -0.26452,0.90169 -0.0589,0.38605 -0.32434,1.37995 -0.58979,2.20866 -1.19283,3.72374 -3.75482,6.35766 -7.66875,7.88402 -0.87728,0.34212 -1.33201,0.74711 -1.09971,0.97941 0.0647,0.0647 0.68648,0.031 1.38182,-0.0749 3.33843,-0.50814 4.82744,0.0366 4.80369,1.75738 -0.0115,0.83431 -0.37751,1.51746 -1.31549,2.45544 -1.434,1.434 -4.6514,3.00088 -7.74769,3.77313 -0.79342,0.19789 -1.47979,0.45676 -1.52527,0.57527 -0.0455,0.11851 0.0895,0.45683 0.29986,0.75182 0.50502,0.70805 0.52364,1.87322 0.0403,2.52414 -1.4663,1.97488 -6.28379,2.44242 -13.86023,1.34514 -1.257,-0.18205 -3.22989,-0.55524 -4.3842,-0.82931 -2.39253,-0.56806 -2.27483,-0.60257 -2.87483,0.84293 -0.80455,1.938311 -2.40523,3.625491 -4.2102,4.437721 -1.58661,0.71398 -3.25025,0.99618 -5.34011,0.90584 -2.28733,-0.0989 -3.64832,-0.46826 -4.93682,-1.33994 -0.83496,-0.56486 -1.35322,-0.72629 -1.35322,-0.4215 0,0.0847 -0.40095,0.58701 -0.891,1.11632 -0.96558,1.04294 -2.38029,1.89631 -3.74004,2.25603 -2.96809,0.7852 -7.35076,0.24426 -10.25265,-1.26548 -1.42492,-0.74131 -2.99994,-2.26751 -3.49273,-3.38444 -0.15993,-0.36248 -0.37689,-0.692111 -0.48215,-0.732501 -0.35044,-0.13447 -3.6942,0.204221 -3.92747,0.397821 -0.12631,0.10482 -0.45586,0.58596 -0.73234,1.06919 -1.63062,2.85004 -4.310875,4.27794 -6.259385,3.33468 -0.411435,-0.19917 -0.894354,-0.54811 -1.073153,-0.77541 -0.386684,-0.49159 -0.36103,-0.49583 -3.026752,0.50023 -2.497095,0.93305 -4.431061,1.30294 -6.369649,1.21826 -1.618058,-0.0707 -2.300328,-0.34253 -2.908948,-1.15904 -0.281914,-0.37821 -0.332092,-0.65805 -0.301564,-1.6818 0.02014,-0.67546 -0.03955,-1.37043 -0.132647,-1.54438 -0.322471,-0.60254 -1.139852,-0.84888 -3.58367,-1.08005 -4.277576,-0.404611 -6.620935,-0.939181 -8.026472,-1.830991 -0.925061,-0.58696 -1.271397,-1.3722 -0.92503,-2.09732 0.519388,-1.08733 2.852559,-2.01836 5.890789,-2.35066 2.359523,-0.25807 2.566879,-0.30278 2.566879,-0.55349 0,-0.12758 -0.289883,-0.68047 -0.644184,-1.22864 -0.354302,-0.54817 -0.732251,-1.2669 -0.83989,-1.59716 -0.259047,-0.79484 -0.410723,-0.86632 -1.198004,-0.56455 -0.740954,0.28401 -6.409585,2.90983 -9.574146,4.43494 -3.443931,1.65974 -5.540232,1.88868 -7.764224,0.84795 -1.962735,-0.91847 -3.982564,-3.42113 -4.784932,-5.92873 -0.220479,-0.68905 -0.359185,-0.82065 -0.719328,-0.68245 -0.637069,0.24447 -0.850115,3.84921 -0.346528,5.86326 1.032124,4.12785 4.446181,8.090491 9.709834,11.270041 4.574676,2.763367 10.009383,4.872587 16.977635,6.589077 7.800457,1.92148 15.433867,2.91367 25.711319,3.34197 2.02158,0.0843 10.26229,-0.06 13.71271,-0.24001 z M 87.743954,96.050953 c 2.239206,-0.46592 5.422739,-1.76873 7.999077,-3.273481 0.852963,-0.49819 1.598846,-0.93233 1.657519,-0.96475 0.05867,-0.0324 -0.109501,0.34017 -0.373717,0.828 -0.642963,1.187101 -0.779293,2.321481 -0.343655,2.859471 0.304009,0.37543 0.362332,0.38725 0.98719,0.20004 0.792738,-0.23751 2.048917,-1.19668 2.720112,-2.07697 0.26656,-0.3496 0.78119,-1.188781 1.14363,-1.864851 l 0.65899,-1.2292 1.82804,-0.1778 c 1.02297,-0.0995 1.9429,-0.27311 2.08882,-0.39421 0.16144,-0.13399 0.24204,-0.40824 0.21161,-0.72006 l -0.0491,-0.50365 -2.93843,-0.10316 c -1.61614,-0.0567 -3.549211,-0.18944 -4.295716,-0.2949 -0.853227,-0.12053 -2.065723,-0.15045 -3.26493,-0.0806 -3.445949,0.20082 -5.446773,-0.67692 -7.300995,-3.20287 -0.680287,-0.92674 -2.412006,-1.85236 -4.727936,-2.52712 -1.523986,-0.44403 -3.652541,-0.68859 -4.38755,-0.50412 -0.717968,0.1802 -0.721512,0.77822 -0.01035,1.74701 0.864745,1.17802 1.999966,2.02563 4.028375,3.00779 l 1.752678,0.84864 -4.527868,0.10089 c -5.966062,0.13294 -8.690655,0.57765 -8.690655,1.41851 0,0.42499 0.519732,0.7218 1.795711,1.02549 2.502892,0.5957 3.651447,0.68501 8.81531,0.6855 4.341932,3.2e-4 5.372246,-0.0461 6.619932,-0.29885 0.812717,-0.16463 1.685662,-0.27468 1.939876,-0.24455 0.383832,0.0455 0.204342,0.16351 -1.058477,0.69599 -1.937274,0.81687 -3.555977,1.900911 -4.848755,3.247211 -1.003388,1.04492 -1.219301,1.54001 -0.816053,1.8712 0.468658,0.38491 1.262974,0.36741 3.387365,-0.0746 z m 31.492436,-0.14135 c 1.44063,-0.33958 2.50589,-0.9592 3.48471,-2.02691 1.57299,-1.715851 2.29051,-3.965951 2.28731,-7.172841 -0.003,-2.69896 -0.66184,-3.9675 -2.06156,-3.9675 -0.67343,0 -2.1418,0.75273 -3.68622,1.88967 -1.42628,1.04996 -5.26793,2.95814 -7.28717,3.6196 -2.07602,0.68005 -2.59893,0.9395 -2.93873,1.45812 -0.32998,0.5036 -0.20635,1.14492 0.46674,2.42134 1.54884,2.937081 5.99059,4.661111 9.73492,3.778521 z m 14.30904,-1.88427 c 2.33619,-0.42671 4.55426,-2.082801 5.53115,-4.129761 0.75296,-1.57771 0.9753,-2.85212 0.85824,-4.91922 -0.10301,-1.81904 -0.31654,-2.44052 -1.03184,-3.00317 -0.81218,-0.63886 -1.60203,-0.43603 -4.56038,1.17109 -5.3279,2.89441 -7.37184,4.07977 -7.72494,4.48003 -0.34437,0.39035 -0.37796,0.55241 -0.30441,1.46866 0.14681,1.82894 1.33366,3.65961 2.88601,4.451561 1.25766,0.64161 2.63287,0.79374 4.34617,0.48081 z m 24.05232,-4.554181 c 1.85039,-0.21273 3.06629,-0.58203 3.28949,-0.99908 0.15553,-0.29059 0.0898,-0.42199 -0.48494,-0.96867 -0.74784,-0.71141 -2.48866,-1.35291 -4.17644,-1.53904 -0.53871,-0.0594 -1.19986,-0.15008 -1.46922,-0.20149 -0.46422,-0.0886 -0.47078,-0.10049 -0.12589,-0.22816 0.20011,-0.0741 1.00818,-0.21614 1.79571,-0.31569 5.22741,-0.6608 10.20236,-2.14201 12.47951,-3.71558 1.72439,-1.19159 2.36493,-2.2391 1.61469,-2.64061 -0.98206,-0.52559 -4.20515,0.063 -7.1061,1.29773 -0.84703,0.36051 -1.62731,0.65548 -1.73396,0.65548 -0.10665,0 0.13777,-0.35459 0.54316,-0.78799 0.94618,-1.01154 1.50618,-1.90508 1.84702,-2.94715 0.32176,-0.98373 0.21404,-1.59452 -0.3245,-1.83989 -0.99305,-0.45247 -3.27162,1.32147 -5.8015,4.51663 -0.79387,1.00262 -1.7625,2.10056 -2.15252,2.43986 -0.73069,0.63566 -3.27024,1.95112 -4.1373,2.14307 -0.39033,0.0864 -0.25777,-0.0575 0.65298,-0.7088 1.85659,-1.32774 3.66531,-3.77897 3.67095,-4.97498 0.001,-0.2905 -0.13317,-0.5338 -0.38724,-0.70027 -0.35637,-0.2335 -0.45696,-0.22941 -1.18802,0.0484 -1.94684,0.73974 -4.46737,2.86694 -7.05648,5.9553 -0.65939,0.78653 -1.35579,1.46943 -1.54756,1.51756 -0.19177,0.0481 -0.97294,0.13922 -1.73593,0.20241 l -1.38726,0.1149 -0.0497,0.68423 -0.0497,0.68423 1.17133,0.34883 c 6.00294,1.78775 10.18832,2.37971 13.84948,1.9588 z m -55.36192,-3.89596 c 2.34081,-0.9505 4.18683,-3.19267 5.09775,-6.19167 0.27851,-0.91691 0.42636,-1.17942 0.66427,-1.17942 0.49972,0 0.87116,1.56397 0.74867,3.15237 -0.0962,1.24815 -0.0854,1.30202 0.35015,1.73757 0.55503,0.55503 1.72322,0.79026 4.60348,0.92697 2.456,0.11658 2.93411,-0.0257 5.52554,-1.64442 0.92908,-0.58035 2.06773,-1.18257 2.53032,-1.33827 0.90603,-0.30494 2.38516,-0.3409 3.08457,-0.075 0.63655,0.24201 1.73304,1.28985 2.09768,2.00458 0.26019,0.51002 0.40572,0.62331 0.80068,0.62331 0.67095,0 2.07911,-0.55884 5.25617,-2.08596 3.96695,-1.9068 4.96749,-2.17855 6.44234,-1.7498 0.94055,0.27342 2.39062,1.42455 2.59141,2.05718 0.14111,0.44463 0.82678,0.39726 2.53532,-0.17516 2.58239,-0.86518 5.46345,-2.49739 7.69792,-4.36109 1.18425,-0.98775 3.51338,-3.42925 4.56827,-4.78865 0.40575,-0.52288 0.44188,-0.53856 0.44893,-0.19484 0.008,0.39425 -0.47041,1.43966 -1.00838,2.20312 -0.17623,0.2501 -0.27652,0.56911 -0.22287,0.70892 0.0831,0.21643 0.21262,0.187808 0.87228,-0.19266 0.3643,-0.210117 0.77931,-0.476536 1.21728,-0.777703 1.44661,-0.994764 3.14365,-2.368633 4.09104,-3.344897 1.36075,-1.402229 2.2987,-3.08467 2.74794,-4.92908 0.29201,-1.19889 0.24791,-4.19163 -0.084,-5.69977 -0.84434,-3.83663 -2.96412,-8.25907 -4.94378,-10.31409 -0.71753,-0.74485 -0.72387,-0.76166 -0.87021,-2.30851 -0.20898,-2.2088 -0.53357,-3.61897 -1.20807,-5.2484 -0.7367,-1.77966 -1.22069,-2.54775 -2.35484,-3.73713 -1.01215,-1.06144 -2.13188,-1.75864 -3.44144,-2.14283 -0.98471,-0.28889 -3.20005,-0.35203 -3.35845,-0.0957 -0.0559,0.0904 0.33585,0.69648 0.87052,1.34679 1.33657,1.62564 2.71461,3.80935 3.63063,5.75328 1.21475,2.57788 1.96811,5.30551 1.46535,5.30551 -0.0858,0 -0.46601,-0.53259 -0.84496,-1.18354 -2.6216,-4.50328 -3.7359,-6.12004 -5.52562,-8.01724 -4.27944,-4.53644 -8.8054,-5.2611 -16.46745,-2.63665 -5.67728,1.94462 -13.20353,5.84036 -20.26633,10.49026 -4.2112,2.77249 -6.36663,4.38338 -6.36663,4.75816 0,0.18609 0.54965,0.6252 1.56931,1.25371 1.60939,0.99201 2.83835,2.0553 2.83835,2.45573 0,0.31749 -0.11269,0.29558 -1.76826,-0.34381 -2.18241,-0.84284 -4.03928,-1.11864 -6.80218,-1.01033 -1.256996,0.0493 -2.731206,0.20054 -3.276022,0.33613 -1.515154,0.37709 -2.845719,0.91669 -2.845719,1.15405 0,0.11737 0.627789,0.56576 1.395088,0.9964 3.154632,1.77054 5.525483,5.12968 7.137213,10.11236 1.02806,3.17823 2.01299,6.89487 1.86611,7.04175 -0.0369,0.0369 -0.17385,0.0262 -0.30424,-0.0238 -0.47057,-0.18057 -1.33107,-1.91754 -2.20102,-4.44285 -2.13469,-6.1966 -4.95412,-10.08258 -8.219644,-11.32899 -1.251593,-0.47772 -3.328676,-0.5815 -4.945609,-0.24711 -2.384806,0.49319 -6.475918,2.85806 -6.615434,3.82406 -0.05087,0.35222 -0.01149,0.36119 1.585434,0.36119 2.049502,0 3.592603,0.45225 5.186821,1.52017 2.471893,1.65584 4.650886,5.18102 5.716999,9.24898 0.383385,1.46287 0.503772,1.71708 0.988153,2.08653 0.303369,0.23139 0.660008,0.63039 0.792535,0.88667 0.344938,0.66704 0.01257,0.73516 -1.08776,0.22297 -2.239598,-1.04252 -4.445032,-0.12973 -5.657818,2.34166 -0.623736,1.27103 -0.720617,3.25148 -0.209003,4.2724 1.54998,3.09296 5.198638,3.53849 8.28265,1.01137 0.41008,-0.33603 1.290281,-1.29514 1.956006,-2.13136 1.67192,-2.10013 2.15839,-2.25564 1.51999,-0.4859 -0.36252,1.00497 -1.55645,2.98647 -2.04253,3.38988 -0.135601,0.11254 -0.246546,0.3389 -0.246546,0.50301 0,0.65945 1.205816,0.82925 2.411636,0.33962 z m -39.495407,-0.87688 c 1.598853,-0.8228 2.312269,-2.39971 2.312269,-5.11095 0,-1.48906 0.03578,-1.69104 0.349025,-1.97014 0.801584,-0.71421 1.01474,-2.0968 0.483095,-3.13349 -0.424635,-0.82802 -0.967764,-1.29938 -1.908813,-1.6566 -0.780169,-0.29615 -0.808273,-0.33139 -1.458539,-1.82934 -1.172131,-2.70011 -2.742773,-4.70934 -4.333424,-5.54348 -1.097841,-0.57572 -2.699132,-0.54309 -3.969931,0.0809 -2.075031,1.01886 -3.058654,2.61341 -3.172581,5.14307 -0.136526,3.03152 0.966519,5.70301 2.964027,7.17866 0.733251,0.54168 0.894126,0.76393 1.15118,1.59034 0.764722,2.45852 2.35597,4.57095 4.054055,5.38189 1.073241,0.51253 2.373067,0.46435 3.529637,-0.13084 z m 6.085247,-2.42229 c 4.776331,-2.41109 12.406752,-5.21518 17.96785,-6.60298 2.543461,-0.63474 5.296992,-1.54163 5.89029,-1.94 0.782161,-0.52519 0.761472,-1.04155 -0.113699,-2.83762 -1.655888,-3.39831 -3.518607,-5.40199 -5.715253,-6.14777 -0.764542,-0.25957 -0.864818,-0.25179 -3.987934,0.30969 -5.787666,1.04051 -6.293968,1.09724 -10.57272,1.18459 -4.141512,0.0846 -5.746349,-0.0138 -9.087607,-0.55693 -1.942064,-0.31569 -2.246443,-0.18374 -1.482367,0.6426 0.842599,0.91125 1.422857,1.78529 2.186679,3.29375 0.685627,1.35404 0.800309,1.48926 1.624092,1.91493 1.108889,0.573 2.129067,1.56281 2.635254,2.55681 0.301031,0.59113 0.389626,1.0268 0.390764,1.92159 0.0013,1.02984 -0.05864,1.25385 -0.544983,2.0362 -0.528762,0.8506 -0.547446,0.93894 -0.57699,2.72795 -0.01679,1.01688 0.0026,1.88202 0.04311,1.92252 0.140567,0.14057 0.360221,0.071 1.343511,-0.42533 z m 99.88811,-9.48182 c 3.1593,-1.92591 4.84072,-5.82163 4.40738,-10.21153 -0.30846,-3.12479 -1.28335,-5.09607 -3.50909,-7.0955 -0.91749,-0.8242 -2.2007,-1.6068 -2.63465,-1.6068 -0.81027,0 -1.14672,1.48273 -0.62161,2.73949 0.32262,0.77214 1.12617,3.85531 1.38791,5.32531 0.24183,1.35821 0.11307,3.99411 -0.26394,5.40303 -0.14416,0.53872 -0.54667,1.58904 -0.89449,2.33405 -0.50091,1.07297 -0.58412,1.37309 -0.40025,1.44365 0.30666,0.11768 1.07624,-0.44348 1.71601,-1.25124 0.28343,-0.35787 0.58235,-0.60926 0.66425,-0.55864 0.27843,0.17208 0.1425,1.29398 -0.27583,2.27659 -0.73842,1.73446 -0.6873,1.87923 0.42431,1.20159 z m -3.47506,-21.85371 c 0.43102,-0.85192 0.1776,-4.16028 -0.47507,-6.20192 -0.72831,-2.27824 -1.72062,-3.53927 -3.39553,-4.31508 -0.9439,-0.43721 -1.38995,-0.51615 -1.54046,-0.27261 -0.0498,0.0806 0.2051,1.05391 0.56641,2.16301 0.36131,1.10911 0.81479,2.82463 1.00774,3.81227 0.31701,1.62265 0.43062,1.91275 1.17886,3.01004 1.55224,2.27639 2.19757,2.71444 2.65805,1.80429 z"
       id="path330"
       sodipodi:nodetypes="cssssssscccsssssssssssssscssssssssscccsscsssscsscssssccssssssssssssssssssssscssssssssssssssccccssssssscsscccscssssscssscsssssccsscsssscssssscsssscscssssssssssssssccscssscccsccssscssssssssssssscscsssssssssscssssssssssscsscsscssssssssssssssssscscsssssscssssccsssssscsssssssscsssssssssssssssssssssss" /></g></svg>
